<svg id="visual" viewBox="0 0 900 600" width="900" height="600" xmlns="http://www.w3.org/2000/svg" xmlns:xlink="http://www.w3.org/1999/xlink" version="1.1"><rect x="0" y="0" width="900" height="600" fill="#6b0072"></rect><path d="M0 241L11.5 246.5C23 252 46 263 69 275.3C92 287.7 115 301.3 138.2 300.5C161.3 299.7 184.7 284.3 207.8 278.7C231 273 254 277 277 285.2C300 293.3 323 305.7 346 303.8C369 302 392 286 415.2 273.2C438.3 260.3 461.7 250.7 484.8 243.8C508 237 531 233 554 227.8C577 222.7 600 216.3 623 222.5C646 228.7 669 247.3 692.2 249.5C715.3 251.7 738.7 237.3 761.8 230.2C785 223 808 223 831 231.5C854 240 877 257 888.5 265.5L900 274L900 0L888.5 0C877 0 854 0 831 0C808 0 785 0 761.8 0C738.7 0 715.3 0 692.2 0C669 0 646 0 623 0C600 0 577 0 554 0C531 0 508 0 484.8 0C461.7 0 438.3 0 415.2 0C392 0 369 0 346 0C323 0 300 0 277 0C254 0 231 0 207.8 0C184.7 0 161.3 0 138.2 0C115 0 92 0 69 0C46 0 23 0 11.5 0L0 0Z" fill="#6b0072"></path><path d="M0 219L11.5 227.8C23 236.7 46 254.3 69 251C92 247.7 115 223.3 138.2 219.3C161.3 215.3 184.7 231.7 207.8 231.5C231 231.3 254 214.7 277 210C300 205.3 323 212.7 346 210.3C369 208 392 196 415.2 195.2C438.3 194.3 461.7 204.7 484.8 205C508 205.3 531 195.7 554 198.5C577 201.3 600 216.7 623 229.7C646 242.7 669 253.3 692.2 254.2C715.3 255 738.7 246 761.8 243C785 240 808 243 831 249.2C854 255.3 877 264.7 888.5 269.3L900 274L900 0L888.5 0C877 0 854 0 831 0C808 0 785 0 761.8 0C738.7 0 715.3 0 692.2 0C669 0 646 0 623 0C600 0 577 0 554 0C531 0 508 0 484.8 0C461.7 0 438.3 0 415.2 0C392 0 369 0 346 0C323 0 300 0 277 0C254 0 231 0 207.8 0C184.7 0 161.3 0 138.2 0C115 0 92 0 69 0C46 0 23 0 11.5 0L0 0Z" fill="#532375"></path><path d="M0 150L11.5 152.2C23 154.3 46 158.7 69 162.2C92 165.7 115 168.3 138.2 164.8C161.3 161.3 184.7 151.7 207.8 162.2C231 172.7 254 203.3 277 207.2C300 211 323 188 346 182.7C369 177.3 392 189.7 415.2 191.8C438.3 194 461.7 186 484.8 181.2C508 176.3 531 174.7 554 172C577 169.3 600 165.7 623 175.3C646 185 669 208 692.2 206C715.3 204 738.7 177 761.8 165.8C785 154.7 808 159.3 831 169.7C854 180 877 196 888.5 204L900 212L900 0L888.5 0C877 0 854 0 831 0C808 0 785 0 761.8 0C738.7 0 715.3 0 692.2 0C669 0 646 0 623 0C600 0 577 0 554 0C531 0 508 0 484.8 0C461.7 0 438.3 0 415.2 0C392 0 369 0 346 0C323 0 300 0 277 0C254 0 231 0 207.8 0C184.7 0 161.3 0 138.2 0C115 0 92 0 69 0C46 0 23 0 11.5 0L0 0Z" fill="#3c2f72"></path><path d="M0 178L11.5 175.3C23 172.7 46 167.3 69 169C92 170.7 115 179.3 138.2 174.5C161.3 169.7 184.7 151.3 207.8 147.7C231 144 254 155 277 154.3C300 153.7 323 141.3 346 138.7C369 136 392 143 415.2 143.2C438.3 143.3 461.7 136.7 484.8 142.7C508 148.7 531 167.3 554 172.2C577 177 600 168 623 160C646 152 669 145 692.2 143.7C715.3 142.3 738.7 146.7 761.8 151C785 155.3 808 159.7 831 166.7C854 173.7 877 183.3 888.5 188.2L900 193L900 0L888.5 0C877 0 854 0 831 0C808 0 785 0 761.8 0C738.7 0 715.3 0 692.2 0C669 0 646 0 623 0C600 0 577 0 554 0C531 0 508 0 484.8 0C461.7 0 438.3 0 415.2 0C392 0 369 0 346 0C323 0 300 0 277 0C254 0 231 0 207.8 0C184.7 0 161.3 0 138.2 0C115 0 92 0 69 0C46 0 23 0 11.5 0L0 0Z" fill="#2c366a"></path><path d="M0 113L11.5 112.3C23 111.7 46 110.3 69 114.2C92 118 115 127 138.2 127C161.3 127 184.7 118 207.8 112.8C231 107.7 254 106.3 277 105.7C300 105 323 105 346 104.2C369 103.3 392 101.7 415.2 100.2C438.3 98.7 461.7 97.3 484.8 97C508 96.7 531 97.3 554 104.5C577 111.7 600 125.3 623 126.7C646 128 669 117 692.2 112.2C715.3 107.3 738.7 108.7 761.8 116.3C785 124 808 138 831 133.3C854 128.7 877 105.3 888.5 93.7L900 82L900 0L888.5 0C877 0 854 0 831 0C808 0 785 0 761.8 0C738.7 0 715.3 0 692.2 0C669 0 646 0 623 0C600 0 577 0 554 0C531 0 508 0 484.8 0C461.7 0 438.3 0 415.2 0C392 0 369 0 346 0C323 0 300 0 277 0C254 0 231 0 207.8 0C184.7 0 161.3 0 138.2 0C115 0 92 0 69 0C46 0 23 0 11.5 0L0 0Z" fill="#26395e"></path><path d="M0 61L11.5 66.3C23 71.7 46 82.3 69 88.8C92 95.3 115 97.7 138.2 97.8C161.3 98 184.7 96 207.8 90.7C231 85.3 254 76.7 277 73.3C300 70 323 72 346 75.5C369 79 392 84 415.2 88.2C438.3 92.3 461.7 95.7 484.8 91.7C508 87.7 531 76.3 554 78.5C577 80.7 600 96.3 623 98.5C646 100.7 669 89.3 692.2 86.3C715.3 83.3 738.7 88.7 761.8 86.2C785 83.7 808 73.3 831 70.2C854 67 877 71 888.5 73L900 75L900 0L888.5 0C877 0 854 0 831 0C808 0 785 0 761.8 0C738.7 0 715.3 0 692.2 0C669 0 646 0 623 0C600 0 577 0 554 0C531 0 508 0 484.8 0C461.7 0 438.3 0 415.2 0C392 0 369 0 346 0C323 0 300 0 277 0C254 0 231 0 207.8 0C184.7 0 161.3 0 138.2 0C115 0 92 0 69 0C46 0 23 0 11.5 0L0 0Z" fill="#2b3b4f"></path><path d="M0 65L11.5 64.5C23 64 46 63 69 55.8C92 48.7 115 35.3 138.2 30.5C161.3 25.7 184.7 29.3 207.8 36.8C231 44.3 254 55.7 277 62C300 68.3 323 69.7 346 64.2C369 58.7 392 46.3 415.2 46.2C438.3 46 461.7 58 484.8 63.5C508 69 531 68 554 60C577 52 600 37 623 33C646 29 669 36 692.2 38.7C715.3 41.3 738.7 39.7 761.8 39.8C785 40 808 42 831 43.2C854 44.3 877 44.7 888.5 44.8L900 45L900 0L888.5 0C877 0 854 0 831 0C808 0 785 0 761.8 0C738.7 0 715.3 0 692.2 0C669 0 646 0 623 0C600 0 577 0 554 0C531 0 508 0 484.8 0C461.7 0 438.3 0 415.2 0C392 0 369 0 346 0C323 0 300 0 277 0C254 0 231 0 207.8 0C184.7 0 161.3 0 138.2 0C115 0 92 0 69 0C46 0 23 0 11.5 0L0 0Z" fill="#343a40"></path></svg>