<svg id="visual" viewBox="0 0 900 600" width="900" height="600" xmlns="http://www.w3.org/2000/svg" xmlns:xlink="http://www.w3.org/1999/xlink" version="1.1"><rect x="0" y="0" width="900" height="600" fill="#000000"></rect><path d="M0 440L21.5 437.2C43 434.3 86 428.7 128.8 418C171.7 407.3 214.3 391.7 257.2 387.5C300 383.3 343 390.7 385.8 397.2C428.7 403.7 471.3 409.3 514.2 406.2C557 403 600 391 642.8 384C685.7 377 728.3 375 771.2 372.7C814 370.3 857 367.7 878.5 366.3L900 365L900 601L878.5 601C857 601 814 601 771.2 601C728.3 601 685.7 601 642.8 601C600 601 557 601 514.2 601C471.3 601 428.7 601 385.8 601C343 601 300 601 257.2 601C214.3 601 171.7 601 128.8 601C86 601 43 601 21.5 601L0 601Z" fill="#db69fa"></path><path d="M0 477L21.5 467C43 457 86 437 128.8 426.8C171.7 416.7 214.3 416.3 257.2 425.8C300 435.3 343 454.7 385.8 452.8C428.7 451 471.3 428 514.2 422.2C557 416.3 600 427.7 642.8 427.8C685.7 428 728.3 417 771.2 414.7C814 412.3 857 418.7 878.5 421.8L900 425L900 601L878.5 601C857 601 814 601 771.2 601C728.3 601 685.7 601 642.8 601C600 601 557 601 514.2 601C471.3 601 428.7 601 385.8 601C343 601 300 601 257.2 601C214.3 601 171.7 601 128.8 601C86 601 43 601 21.5 601L0 601Z" fill="#be51d6"></path><path d="M0 454L21.5 462C43 470 86 486 128.8 489.8C171.7 493.7 214.3 485.3 257.2 481.3C300 477.3 343 477.7 385.8 478.3C428.7 479 471.3 480 514.2 484.5C557 489 600 497 642.8 490.3C685.7 483.7 728.3 462.3 771.2 457.3C814 452.3 857 463.7 878.5 469.3L900 475L900 601L878.5 601C857 601 814 601 771.2 601C728.3 601 685.7 601 642.8 601C600 601 557 601 514.2 601C471.3 601 428.7 601 385.8 601C343 601 300 601 257.2 601C214.3 601 171.7 601 128.8 601C86 601 43 601 21.5 601L0 601Z" fill="#a239b3"></path><path d="M0 529L21.5 522.2C43 515.3 86 501.7 128.8 500.8C171.7 500 214.3 512 257.2 518C300 524 343 524 385.8 524.2C428.7 524.3 471.3 524.7 514.2 523.7C557 522.7 600 520.3 642.8 516C685.7 511.7 728.3 505.3 771.2 506.3C814 507.3 857 515.7 878.5 519.8L900 524L900 601L878.5 601C857 601 814 601 771.2 601C728.3 601 685.7 601 642.8 601C600 601 557 601 514.2 601C471.3 601 428.7 601 385.8 601C343 601 300 601 257.2 601C214.3 601 171.7 601 128.8 601C86 601 43 601 21.5 601L0 601Z" fill="#862092"></path><path d="M0 528L21.5 530.8C43 533.7 86 539.3 128.8 545.5C171.7 551.7 214.3 558.3 257.2 558.2C300 558 343 551 385.8 547.3C428.7 543.7 471.3 543.3 514.2 543C557 542.7 600 542.3 642.8 541.2C685.7 540 728.3 538 771.2 540.7C814 543.3 857 550.7 878.5 554.3L900 558L900 601L878.5 601C857 601 814 601 771.2 601C728.3 601 685.7 601 642.8 601C600 601 557 601 514.2 601C471.3 601 428.7 601 385.8 601C343 601 300 601 257.2 601C214.3 601 171.7 601 128.8 601C86 601 43 601 21.5 601L0 601Z" fill="#6b0072"></path></svg>